<?xml version="1.0" encoding="utf-8"?>
<svg xmlns="http://www.w3.org/2000/svg" viewBox="0 0 112.5 150">
  <path d="M 8.553 96.464 C 7.566 96.957 6.908 97.615 6.579 98.602 L 6.25 98.602 L 6.25 117.023 C 6.25 118.668 7.072 120.148 8.553 120.806 L 50.822 142.023 C 52.467 142.845 54.276 143.339 56.25 143.339 C 58.059 143.339 59.868 142.845 61.678 142.023 L 103.947 120.806 C 105.428 120.148 106.25 118.668 106.25 117.023 L 106.25 98.602 L 105.921 98.602 C 105.592 97.779 104.934 96.957 103.947 96.464 L 67.599 78.372 L 67.599 50.904 C 74.836 46.957 79.934 39.062 79.934 30.181 C 79.934 17.187 69.408 6.661 56.414 6.661 C 43.421 6.661 32.895 17.187 32.895 30.181 C 32.895 39.062 37.829 46.793 45.23 50.904 L 45.23 78.372 L 8.553 96.464 Z M 36.02 30.181 C 36.02 18.997 45.066 9.95 56.25 9.95 C 67.434 9.95 76.48 18.997 76.48 30.181 C 76.48 41.365 67.434 50.411 56.25 50.411 C 45.066 50.411 36.02 41.365 36.02 30.181 Z M 64.309 52.385 L 64.309 96.464 C 64.309 98.437 61.02 100.74 56.25 100.74 C 51.48 100.74 48.191 98.437 48.191 96.464 L 48.191 52.385 C 50.658 53.372 53.454 53.865 56.25 53.865 C 59.046 53.7 61.678 53.207 64.309 52.385 Z M 56.25 103.865 C 62.5 103.865 67.599 100.575 67.599 96.299 L 67.599 81.825 L 102.467 99.26 C 102.961 99.424 102.961 99.918 102.961 100.082 C 102.961 100.247 102.961 100.74 102.467 100.904 L 60.197 122.286 C 57.73 123.437 54.934 123.437 52.467 122.286 L 10.033 101.069 C 9.539 100.904 9.539 100.411 9.539 100.247 C 9.539 100.082 9.539 99.589 10.033 99.424 L 44.901 81.99 L 44.901 96.464 C 44.901 100.575 50 103.865 56.25 103.865 Z" style="fill: rgb(240, 194, 68);"/>
</svg>