<?xml version="1.0" encoding="utf-8"?>
<svg xmlns="http://www.w3.org/2000/svg" viewBox="0 0 150 150" xmlns:bx="https://boxy-svg.com">
  <defs>
    <bx:export>
      <bx:file format="png" width="771" height="1024" path="appicon.png"/>
    </bx:export>
  </defs>
  <path d="M 27.303 96.464 C 26.316 96.957 25.658 97.615 25.329 98.602 L 25 98.602 L 25 117.023 C 25 118.668 25.822 120.148 27.303 120.806 L 69.572 142.023 C 71.217 142.845 73.026 143.339 75 143.339 C 76.809 143.339 78.618 142.845 80.428 142.023 L 122.697 120.806 C 124.178 120.148 125 118.668 125 117.023 L 125 98.602 L 124.671 98.602 C 124.342 97.779 123.684 96.957 122.697 96.464 L 86.349 78.372 L 86.349 50.904 C 93.586 46.957 98.684 39.062 98.684 30.181 C 98.684 17.187 88.158 6.661 75.164 6.661 C 62.171 6.661 51.645 17.187 51.645 30.181 C 51.645 39.062 56.579 46.793 63.98 50.904 L 63.98 78.372 L 27.303 96.464 Z M 54.77 30.181 C 54.77 18.997 63.816 9.95 75 9.95 C 86.184 9.95 95.23 18.997 95.23 30.181 C 95.23 41.365 86.184 50.411 75 50.411 C 63.816 50.411 54.77 41.365 54.77 30.181 Z M 83.059 52.385 L 83.059 96.464 C 83.059 98.437 79.77 100.74 75 100.74 C 70.23 100.74 66.941 98.437 66.941 96.464 L 66.941 52.385 C 69.408 53.372 72.204 53.865 75 53.865 C 77.796 53.7 80.428 53.207 83.059 52.385 Z M 75 103.865 C 81.25 103.865 86.349 100.575 86.349 96.299 L 86.349 81.825 L 121.217 99.26 C 121.711 99.424 121.711 99.918 121.711 100.082 C 121.711 100.247 121.711 100.74 121.217 100.904 L 78.947 122.286 C 76.48 123.437 73.684 123.437 71.217 122.286 L 28.783 101.069 C 28.289 100.904 28.289 100.411 28.289 100.247 C 28.289 100.082 28.289 99.589 28.783 99.424 L 63.651 81.99 L 63.651 96.464 C 63.651 100.575 68.75 103.865 75 103.865 Z" style="fill: rgb(240, 194, 68);"/>
</svg>