<?xml version="1.0" encoding="utf-8"?>
<svg version="1.0" xmlns="http://www.w3.org/2000/svg" viewBox="0 0 629 179" preserveAspectRatio="xMidYMid meet" color-interpolation-filters="sRGB" style="margin: auto;">
  <g transform="matrix(0.977654, 0, 0, 0.977654, 1.522346, 2.5)">
    <rect width="132" height="179" style="stroke-width: 5px;" fill="#073763" fill-opacity="1" x="1" stroke="#f0c244"/>
    <path d="M 19.303 111.003 C 18.316 111.496 17.658 112.154 17.329 113.141 L 17 113.141 L 17 131.562 C 17 133.207 17.822 134.687 19.303 135.345 L 61.572 156.562 C 63.217 157.384 65.026 157.878 67 157.878 C 68.809 157.878 70.618 157.384 72.428 156.562 L 114.697 135.345 C 116.178 134.687 117 133.207 117 131.562 L 117 113.141 L 116.671 113.141 C 116.342 112.318 115.684 111.496 114.697 111.003 L 78.349 92.911 L 78.349 65.443 C 85.586 61.496 90.684 53.601 90.684 44.72 C 90.684 31.726 80.158 21.2 67.164 21.2 C 54.171 21.2 43.645 31.726 43.645 44.72 C 43.645 53.601 48.579 61.332 55.98 65.443 L 55.98 92.911 L 19.303 111.003 Z M 46.77 44.72 C 46.77 33.536 55.816 24.489 67 24.489 C 78.184 24.489 87.23 33.536 87.23 44.72 C 87.23 55.904 78.184 64.95 67 64.95 C 55.816 64.95 46.77 55.904 46.77 44.72 Z M 75.059 66.924 L 75.059 111.003 C 75.059 112.976 71.77 115.279 67 115.279 C 62.23 115.279 58.941 112.976 58.941 111.003 L 58.941 66.924 C 61.408 67.911 64.204 68.404 67 68.404 C 69.796 68.239 72.428 67.746 75.059 66.924 Z M 67 118.404 C 73.25 118.404 78.349 115.114 78.349 110.838 L 78.349 96.364 L 113.217 113.799 C 113.711 113.963 113.711 114.457 113.711 114.621 C 113.711 114.786 113.711 115.279 113.217 115.443 L 70.947 136.825 C 68.48 137.976 65.684 137.976 63.217 136.825 L 20.783 115.608 C 20.289 115.443 20.289 114.95 20.289 114.786 C 20.289 114.621 20.289 114.128 20.783 113.963 L 55.651 96.529 L 55.651 111.003 C 55.651 115.114 60.75 118.404 67 118.404 Z" style="fill: rgb(240, 194, 68); stroke-width: 5px;"/>
  </g>
  <g transform="matrix(8.181818, 0, 0, 8.181818, 134, 0)" mask="url(#52d5a983-0483-4edc-8703-7768471420f2)" style="">
    <rect width="60.495" height="22" stroke-width="2" fill-opacity="1" fill="#f0c244" style=""/>
    <path d="M 5 5.16 L 5 6.97 L 8.33 6.97 L 8.33 16.21 L 10.46 16.21 L 10.46 6.97 L 13.78 6.97 L 13.78 5.16 L 5 5.16 Z M 18.37 5 L 18.37 7.02 C 20.46 7.02 22.04 8.22 22.04 10.68 C 22.04 13.15 20.46 14.36 18.37 14.36 C 16.35 14.36 14.79 13.15 14.79 10.68 C 14.79 10.68 12.64 10.68 12.64 10.68 C 12.64 14.33 15.18 16.37 18.37 16.37 C 21.64 16.37 24.17 14.49 24.17 10.68 C 24.17 7.05 21.64 5 18.37 5 Z M 24.51 5.16 L 24.51 7.23 L 33.29 7.23 L 33.29 5.16 L 24.51 5.16 Z M 27.85 8.63 L 27.85 16.21 L 29.98 16.21 L 29.98 8.63 L 27.85 8.63 Z M 38.77 5.16 L 36.07 5.16 L 32.11 16.21 L 34.41 16.21 L 37.35 7.45 L 37.51 7.45 L 40.65 16.21 L 43.11 16.21 L 38.77 5.16 Z M 46.41 12.91 L 46.41 5.16 L 44.26 5.16 L 44.26 12.91 L 46.41 12.91 Z M 44.26 16.21 L 52.3 16.21 L 52.3 14.13 L 44.26 14.13 L 44.26 16.21 Z M 58.16 16.37 C 61.3 16.37 63 14.52 63.37 12.23 L 61.21 12.23 C 60.84 13.61 59.72 14.5 58.09 14.5 C 55.93 14.5 54.56 12.59 54.56 10.53 C 54.56 8.35 56.09 6.88 58.06 6.88 C 59.94 6.88 60.92 7.94 61.24 9.25 L 63.37 9.25 C 63.05 6.53 60.92 5 57.92 5 C 54.56 5 52.47 7.54 52.47 10.68 C 52.47 13.81 54.38 16.37 58.16 16.37 Z M 70.14 5 L 70.14 7.02 C 72.23 7.02 73.8 8.22 73.8 10.68 C 73.8 13.15 72.23 14.36 70.14 14.36 C 68.12 14.36 66.56 13.15 66.56 10.68 C 66.56 10.68 64.41 10.68 64.41 10.68 C 64.41 14.33 66.95 16.37 70.14 16.37 C 73.41 16.37 75.94 14.49 75.94 10.68 C 75.94 7.05 73.41 5 70.14 5 Z M 85.06 16.21 L 87.14 16.21 L 87.14 5.16 L 85.11 5.16 L 85.11 12.77 L 85.03 12.77 L 79.69 5.16 L 77.5 5.16 L 85.06 16.21 Z M 77.59 16.21 L 79.66 16.21 L 79.66 10.79 L 77.59 7.84 L 77.59 16.21 Z M 88.31 5.16 L 88.31 7.23 L 102.6 7.23 C 104.02 7.23 104.72 7.61 104.72 8.7 C 104.72 9.86 103.9 10.54 102.62 10.54 L 98.27 10.54 L 98.27 16.21 L 100.41 16.21 L 100.41 12.31 L 102.88 12.31 L 104.95 16.21 L 107.35 16.21 L 104.78 11.95 C 106.12 11.28 106.72 9.83 106.72 8.65 C 106.72 6.42 105.33 5.16 102.84 5.16 L 88.31 5.16 Z M 91.64 8.63 L 91.64 16.21 L 93.78 16.21 L 93.78 8.63 L 91.64 8.63 Z M 113.73 5 L 113.73 7.02 C 115.82 7.02 117.39 8.22 117.39 10.68 C 117.39 13.15 115.82 14.36 113.73 14.36 C 111.71 14.36 110.15 13.15 110.15 10.68 C 110.15 10.68 108 10.68 108 10.68 C 108 14.33 110.54 16.37 113.73 16.37 C 117 16.37 119.53 14.49 119.53 10.68 C 119.53 7.05 117 5 113.73 5 Z M 123.33 12.91 L 123.33 5.16 L 121.18 5.16 L 121.18 12.91 L 123.33 12.91 Z M 121.18 16.21 L 129.22 16.21 L 129.22 14.13 L 121.18 14.13 L 121.18 16.21 Z" style="fill: rgb(7, 55, 99); visibility: hidden; pointer-events: none;"/>
    <g transform="matrix(0.747001, 0, 0, 0.747001, -2.227304, 5.164801)">
      <path d="M 10.775 20.015 C 13.915 20.015 15.615 18.165 15.985 15.875 L 13.825 15.875 C 13.455 17.255 12.335 18.145 10.705 18.145 C 8.545 18.145 7.175 16.235 7.175 14.175 C 7.175 11.995 8.705 10.525 10.675 10.525 C 12.555 10.525 13.535 11.585 13.855 12.895 L 15.985 12.895 C 15.665 10.175 13.535 8.645 10.535 8.645 C 7.175 8.645 5.085 11.185 5.085 14.325 C 5.085 17.455 6.995 20.015 10.775 20.015 Z M 22.755 8.645 L 22.755 10.665 C 24.845 10.665 26.415 11.865 26.415 14.325 C 26.415 16.795 24.845 18.005 22.755 18.005 C 20.735 18.005 19.175 16.795 19.175 14.325 C 19.175 14.325 17.025 14.325 17.025 14.325 C 17.025 17.975 19.565 20.015 22.755 20.015 C 26.025 20.015 28.555 18.135 28.555 14.325 C 28.555 10.695 26.025 8.645 22.755 8.645 Z M 37.675 19.855 L 39.755 19.855 L 39.755 8.805 L 37.725 8.805 L 37.725 16.415 L 37.645 16.415 L 32.305 8.805 L 30.115 8.805 L 37.675 19.855 Z M 30.205 19.855 L 32.275 19.855 L 32.275 14.435 L 30.205 11.485 L 30.205 19.855 Z M 40.925 8.805 L 40.925 10.875 L 55.215 10.875 C 56.635 10.875 57.335 11.255 57.335 12.345 C 57.335 13.505 56.515 14.185 55.235 14.185 L 50.885 14.185 L 50.885 19.855 L 53.025 19.855 L 53.025 15.955 L 55.495 15.955 L 57.565 19.855 L 59.965 19.855 L 57.395 15.595 C 58.735 14.925 59.335 13.475 59.335 12.295 C 59.335 10.065 57.945 8.805 55.455 8.805 L 40.925 8.805 Z M 44.255 12.275 L 44.255 19.855 L 46.395 19.855 L 46.395 12.275 L 44.255 12.275 Z M 66.345 8.645 L 66.345 10.665 C 68.435 10.665 70.005 11.865 70.005 14.325 C 70.005 16.795 68.435 18.005 66.345 18.005 C 64.325 18.005 62.765 16.795 62.765 14.325 C 62.765 14.325 60.615 14.325 60.615 14.325 C 60.615 17.975 63.155 20.015 66.345 20.015 C 69.615 20.015 72.145 18.135 72.145 14.325 C 72.145 10.695 69.615 8.645 66.345 8.645 Z M 75.945 16.555 L 75.945 8.805 L 73.795 8.805 L 73.795 16.555 L 75.945 16.555 Z M 73.795 19.855 L 81.835 19.855 L 81.835 17.775 L 73.795 17.775 L 73.795 19.855 Z" style="fill: rgb(7, 55, 99);"/>
      <path d="M 5 -4.232 L 5 -2.422 L 8.33 -2.422 L 8.33 6.818 L 10.46 6.818 L 10.46 -2.422 L 13.78 -2.422 L 13.78 -4.232 L 5 -4.232 Z M 18.37 -4.392 L 18.37 -2.372 C 20.46 -2.372 22.04 -1.172 22.04 1.288 C 22.04 3.758 20.46 4.968 18.37 4.968 C 16.35 4.968 14.79 3.758 14.79 1.288 C 14.79 1.288 12.64 1.288 12.64 1.288 C 12.64 4.938 15.18 6.978 18.37 6.978 C 21.64 6.978 24.17 5.098 24.17 1.288 C 24.17 -2.342 21.64 -4.392 18.37 -4.392 Z M 24.51 -4.232 L 24.51 -2.162 L 33.29 -2.162 L 33.29 -4.232 L 24.51 -4.232 Z M 27.85 -0.762 L 27.85 6.818 L 29.98 6.818 L 29.98 -0.762 L 27.85 -0.762 Z M 38.77 -4.232 L 36.07 -4.232 L 32.11 6.818 L 34.41 6.818 L 37.35 -1.942 L 37.51 -1.942 L 40.65 6.818 L 43.11 6.818 L 38.77 -4.232 Z M 46.41 3.518 L 46.41 -4.232 L 44.26 -4.232 L 44.26 3.518 L 46.41 3.518 Z M 44.26 6.818 L 52.3 6.818 L 52.3 4.738 L 44.26 4.738 L 44.26 6.818 Z" style="fill: rgb(7, 55, 99);"/>
    </g>
  </g>
</svg>